# xmcd CD database file
#
# Track frame offsets:
#	187
#	14117
#	28907
#	47120
#	63285
#	89132
#	105357
#	123432
#	136607
#	156867
#	175425
#	196445
#	211167
#	228070
#	249897
#
# Disc length: 3643 seconds
#
# Revision: 0
# Processed by: cddbd v1.5.2PL0 Copyright (c) Steve Scherf et al.
# Submitted via: CDex 1.70beta2
#
DISCID=c90e390f
DTITLE=阿川　泰子 - オシャレ３０－３０
DYEAR=1989
DGENRE=Jazz
TTITLE0=KEEP THIS HEART(ACAI)
TTITLE1=WHEN HE FINDS OUT 
TTITLE2=AWAY
TTITLE3=HOOLS RASH IN
TTITLE4=LOVER COME BACK TO ME!
TTITLE5=ON GREEN DOLOPHIN STREET
TTITLE6=TACH ME TONIGHT
TTITLE7=NEW YORK AFTERMOON
TTITLE8=CINEMA
TTITLE9=SUMMER
TTITLE10=IF YOU NEVER COME TO ME
TTITLE11=BEWITCHED
TTITLE12=ALFIE
TTITLE13=SUMMERTIME
TTITLE14=WHEN THE WORLD TURNS BLUE
EXTD=YEAR: 1989
EXTT0=
EXTT1=
EXTT2=
EXTT3=
EXTT4=
EXTT5=
EXTT6=
EXTT7=
EXTT8=
EXTT9=
EXTT10=
EXTT11=
EXTT12=
EXTT13=
EXTT14=
PLAYORDER=
